<svg id="Layer_1" data-name="Layer 1" xmlns="http://www.w3.org/2000/svg" viewBox="0 0 164 164"><defs><style>.cls-1{fill:#f7932f;}.cls-2{fill:#777676;}</style></defs><title>payment</title><path class="cls-1" d="M754.2,477.8a7.88,7.88,0,0,0-7.7-7.9H677.9a7.75,7.75,0,0,0-7.7,7.9v6.9h84.3v-6.9h-0.3ZM748,503a0.48,0.48,0,0,0-.7,0l-7.4,7.6-3-3a0.48,0.48,0,0,0-.7,0l-2.8,2.8c-0.2.2-.2,0.2-0.2,0.3s0,0.3.2,0.3l6.1,6.1c0.2,0.2.2,0.2,0.3,0.2s0.3,0,.3-0.2l10.5-10.5c0.2-.2.2-0.2,0.2-0.3a0.24,0.24,0,0,0-.2-0.3Zm-5.9-12.5a19.79,19.79,0,0,0-9.7,2.6H670v23.7a7.88,7.88,0,0,0,7.7,7.9h51.7a18.36,18.36,0,0,0,12.5,4.6,19.33,19.33,0,0,0,19.3-19.4A19.1,19.1,0,0,0,742.1,490.5ZM698.8,514a1.08,1.08,0,0,1-1,1H682.3a1.08,1.08,0,0,1-1-1v-3.1a1.08,1.08,0,0,1,1-1h15.5a1.08,1.08,0,0,1,1,1V514Zm43.3,8.3A12.3,12.3,0,1,1,754.3,510,12.4,12.4,0,0,1,742.1,522.3Z" transform="translate(-630.5 -416.2)"/><path class="cls-2" d="M712.5,416.2a82,82,0,1,0,82,82A82.11,82.11,0,0,0,712.5,416.2Zm0,157.4a75.4,75.4,0,1,1,75.4-75.4A75.45,75.45,0,0,1,712.5,573.6Z" transform="translate(-630.5 -416.2)"/></svg>