<?xml version="1.0" standalone="no"?>
<!DOCTYPE svg PUBLIC "-//W3C//DTD SVG 20010904//EN"
 "http://www.w3.org/TR/2001/REC-SVG-20010904/DTD/svg10.dtd">
<svg version="1.0" xmlns="http://www.w3.org/2000/svg"
 width="1125.000000pt" height="1125.000000pt" viewBox="0 0 1125.000000 1125.000000"
 preserveAspectRatio="xMidYMid meet">
<metadata>
Created by potrace 1.11, written by Peter Selinger 2001-2013
</metadata>
<g transform="translate(0.000000,1125.000000) scale(0.100000,-0.100000)"
fill="#000000" stroke="none">
<path d="M10108 8235 c-3 -3 -29 -7 -59 -10 -30 -3 -70 -8 -89 -10 -19 -3 -57
-7 -85 -10 -27 -4 -61 -8 -75 -10 -14 -2 -47 -6 -75 -10 -27 -3 -66 -8 -85
-10 -19 -3 -60 -7 -90 -10 -30 -4 -66 -8 -80 -10 -82 -12 -111 -15 -160 -20
-30 -3 -68 -8 -85 -10 -35 -6 -74 -11 -163 -21 l-63 -7 5 -36 c3 -20 8 -63 11
-96 4 -32 8 -67 10 -77 2 -9 6 -43 10 -75 3 -32 8 -69 10 -83 2 -14 6 -50 10
-80 3 -30 8 -71 11 -90 2 -19 6 -51 8 -70 2 -19 7 -55 10 -80 3 -25 13 -103
21 -175 9 -71 18 -141 20 -155 2 -14 6 -50 10 -81 3 -31 7 -65 9 -75 2 -11 7
-49 10 -86 4 -37 9 -77 11 -90 2 -13 6 -44 9 -69 l6 -47 -58 -7 c-31 -4 -73
-8 -92 -11 -31 -3 -146 -17 -240 -29 -35 -4 -341 -41 -415 -50 -22 -3 -74 -9
-115 -15 -41 -5 -97 -12 -125 -16 -27 -3 -77 -9 -110 -14 -33 -4 -61 -7 -61
-6 -1 0 -9 62 -18 136 -9 74 -19 153 -22 175 -2 22 -7 51 -9 65 -2 14 -7 52
-10 85 -3 33 -8 71 -10 85 -2 14 -6 45 -9 70 -21 176 -28 229 -31 255 -3 17
-7 48 -9 70 -10 92 -37 312 -41 340 -3 17 -7 57 -11 90 -9 85 -11 90 -20 89
-5 -1 -40 -5 -79 -8 -38 -4 -81 -9 -95 -11 -32 -5 -112 -15 -170 -21 -25 -2
-60 -6 -78 -9 -18 -3 -54 -7 -80 -10 -26 -3 -63 -7 -82 -10 -56 -7 -106 -14
-245 -30 -71 -9 -141 -18 -155 -20 -23 -3 -51 -6 -175 -21 -22 -2 -56 -6 -75
-9 -19 -3 -55 -7 -80 -10 -25 -3 -61 -8 -80 -10 -36 -5 -60 -8 -165 -20 -33
-4 -67 -9 -75 -10 -8 -2 -44 -6 -80 -10 -36 -3 -76 -8 -90 -10 -14 -2 -50 -6
-80 -10 -30 -4 -66 -8 -80 -10 -14 -2 -54 -7 -90 -10 -36 -3 -72 -8 -80 -10
-8 -2 -40 -6 -70 -10 -59 -6 -101 -13 -105 -17 -2 -2 -6 -25 -9 -53 -4 -27
-11 -77 -16 -110 -5 -33 -11 -78 -15 -100 -20 -139 -36 -243 -40 -265 -2 -14
-18 -122 -35 -240 -17 -118 -33 -226 -35 -240 -2 -14 -9 -61 -15 -105 -6 -44
-13 -91 -15 -105 -3 -14 -7 -43 -10 -65 -3 -22 -12 -80 -20 -130 -19 -122 -23
-152 -31 -210 -3 -27 -8 -59 -10 -70 -2 -11 -7 -40 -10 -65 -3 -25 -8 -52 -9
-61 -2 -9 -6 -40 -10 -69 -4 -29 -9 -62 -11 -74 -2 -11 -6 -38 -9 -61 -3 -22
-10 -67 -15 -100 -5 -33 -12 -82 -16 -110 -3 -27 -11 -79 -17 -113 l-12 -64
-31 54 c-17 29 -75 130 -129 223 -54 94 -106 184 -115 200 -9 17 -68 118 -130
225 -62 107 -123 213 -136 235 -12 22 -119 208 -238 414 -119 205 -216 377
-216 382 0 5 -4 9 -10 9 -5 0 -10 4 -10 9 0 10 -235 420 -249 434 -6 6 -41 5
-93 -2 -45 -6 -108 -13 -138 -16 -30 -3 -64 -7 -75 -9 -11 -3 -34 -5 -51 -5
-31 -1 -32 -4 -52 -73 -11 -40 -70 -253 -132 -473 -61 -220 -135 -485 -164
-590 -29 -104 -88 -314 -131 -465 -42 -151 -78 -279 -79 -285 -1 -5 -9 -35
-18 -65 -9 -30 -42 -147 -73 -260 -31 -113 -60 -208 -64 -212 -3 -4 -24 34
-45 85 -21 50 -44 106 -51 122 -7 17 -59 140 -115 275 -56 135 -108 259 -115
275 -16 34 -253 601 -325 775 -71 171 -99 239 -126 298 -13 29 -24 58 -24 66
0 7 -3 16 -7 19 -3 4 -36 78 -73 164 -36 87 -70 157 -76 157 -13 -2 -122 -15
-161 -20 -18 -1 -126 -15 -240 -29 -115 -14 -228 -28 -253 -31 -25 -3 -79 -9
-121 -15 -41 -5 -95 -11 -119 -14 -23 -2 -59 -7 -79 -10 -20 -3 -56 -7 -81
-10 -75 -9 -125 -17 -128 -20 -4 -3 80 -193 159 -363 22 -46 39 -86 39 -88 0
-2 14 -32 31 -66 17 -35 39 -83 49 -108 10 -25 36 -83 58 -130 52 -113 74
-160 207 -455 62 -137 169 -374 238 -525 68 -151 135 -297 147 -325 13 -27 36
-79 53 -115 16 -36 59 -130 94 -210 55 -122 182 -402 293 -645 15 -33 77 -170
138 -305 269 -596 248 -555 283 -556 18 0 75 5 128 12 53 7 121 15 151 19 30
3 66 8 80 10 40 5 110 14 175 21 33 3 67 8 75 9 9 2 43 6 75 10 33 4 69 8 81
10 11 2 52 6 90 10 103 10 100 8 120 88 10 40 19 74 19 77 1 3 4 14 8 25 3 11
8 31 11 45 2 14 18 77 34 140 34 127 162 626 167 650 2 8 44 177 95 375 51
198 93 367 95 375 19 83 68 267 74 273 4 4 14 -5 22 -20 8 -15 32 -62 55 -103
155 -283 520 -950 534 -975 9 -16 79 -145 155 -285 76 -140 149 -273 162 -295
12 -22 37 -68 55 -103 l33 -63 60 6 c60 6 72 8 175 20 30 4 66 8 80 10 14 1
43 5 65 8 22 4 65 9 95 12 30 3 66 8 80 10 14 3 48 7 75 10 72 7 146 16 164
20 33 6 156 19 165 17 18 -5 34 20 40 66 4 26 9 58 12 72 12 72 77 435 89 500
12 62 71 395 90 505 2 17 7 41 10 55 3 14 12 66 21 115 17 101 17 99 44 250
28 150 72 395 75 422 2 12 6 34 9 50 4 15 9 40 11 56 3 15 7 39 10 55 3 15 10
54 15 87 6 33 13 71 16 85 2 14 7 41 10 60 3 19 7 42 9 50 3 8 7 33 10 55 4
22 8 47 10 55 3 8 7 33 10 55 4 22 8 47 10 55 2 8 7 35 10 60 3 25 8 52 10 60
3 8 18 92 34 185 17 94 32 181 35 195 3 14 25 140 50 280 26 140 48 265 50
276 2 12 7 39 10 60 3 22 8 50 11 64 2 14 7 39 10 55 3 17 7 39 9 50 2 11 9
49 15 85 7 36 14 76 17 90 2 14 7 41 10 60 8 45 14 51 15 14 2 -31 3 -43 13
-116 3 -27 8 -69 12 -95 5 -52 22 -186 29 -243 3 -19 7 -53 9 -75 16 -135 38
-304 41 -325 2 -14 6 -50 9 -80 3 -30 8 -73 11 -95 8 -59 13 -94 19 -155 4
-30 9 -66 11 -80 2 -14 7 -50 10 -80 3 -30 8 -71 10 -90 3 -19 7 -55 10 -80 2
-25 7 -61 10 -80 3 -19 7 -55 10 -80 5 -47 32 -259 40 -320 3 -19 7 -55 9 -80
3 -25 7 -64 10 -87 11 -80 15 -118 21 -168 3 -27 17 -138 30 -245 13 -107 27
-221 30 -253 4 -32 8 -66 10 -75 2 -16 10 -77 21 -164 6 -54 12 -107 19 -153
2 -22 7 -62 10 -90 3 -27 14 -117 25 -200 11 -82 22 -172 25 -200 3 -27 7 -66
10 -85 2 -19 7 -60 11 -90 3 -30 8 -64 9 -75 1 -11 3 -30 4 -43 1 -19 5 -22
29 -18 15 3 50 8 77 11 28 3 66 8 85 10 19 2 55 7 80 10 25 3 65 7 89 10 23 3
55 7 70 9 14 3 72 10 128 16 56 6 110 12 120 14 10 2 45 7 78 10 33 4 74 9 90
11 32 5 100 13 175 21 25 2 54 6 65 9 11 2 26 4 33 4 9 1 12 10 8 29 -3 15 -8
59 -11 97 -3 39 -8 79 -10 90 -2 11 -7 40 -9 65 -12 97 -47 386 -51 410 -2 14
-7 52 -10 85 -3 33 -8 75 -11 93 -2 17 -6 47 -8 65 -3 17 -8 59 -11 92 -3 33
-8 71 -10 85 -2 14 -7 48 -10 75 -3 28 -8 66 -10 85 -3 19 -7 53 -9 75 -3 22
-10 78 -16 124 -6 45 -10 85 -8 86 2 2 26 6 53 9 28 4 86 11 130 16 88 12 124
16 205 25 30 4 71 9 90 11 19 3 53 7 74 9 21 3 55 7 75 10 52 7 97 12 176 20
39 4 72 9 75 10 3 2 39 6 80 10 41 4 77 8 80 10 3 2 40 7 81 11 40 3 77 8 81
10 11 7 17 -10 23 -70 4 -31 8 -66 10 -76 2 -10 6 -45 10 -77 3 -32 8 -69 10
-83 3 -23 13 -105 20 -175 2 -16 10 -84 19 -150 8 -66 18 -146 21 -178 4 -32
8 -66 10 -76 3 -16 11 -80 20 -156 8 -73 17 -142 20 -165 2 -14 6 -50 10 -80
11 -105 26 -215 31 -243 6 -26 9 -28 42 -23 40 7 72 11 167 21 33 4 71 8 85
10 14 2 84 11 155 20 72 9 144 17 160 19 17 3 57 7 90 11 33 4 71 8 85 10 72
11 109 15 150 19 25 3 68 8 95 12 28 4 61 7 74 8 23 0 23 2 17 65 -3 37 -10
100 -15 141 -6 41 -13 100 -16 130 -4 30 -9 71 -11 90 -11 84 -14 108 -19 155
-6 50 -13 108 -20 155 -2 14 -6 54 -10 90 -10 93 -12 108 -24 191 -6 41 -13
94 -15 119 -8 78 -17 153 -27 220 -5 36 -11 85 -14 110 -2 25 -7 64 -10 88 -3
23 -7 61 -10 85 -8 71 -16 141 -20 167 -7 45 -14 101 -40 320 -32 263 -35 286
-40 330 -3 19 -7 59 -11 88 -3 29 -7 62 -9 72 -2 10 -6 45 -9 77 -4 32 -8 74
-11 93 -6 44 -13 102 -20 158 -9 75 -15 126 -25 202 -10 81 -16 136 -25 215
-3 28 -8 61 -10 75 -2 14 -7 50 -10 80 -4 30 -8 66 -10 80 -2 14 -6 54 -10 90
-3 36 -8 76 -10 90 -6 29 -12 75 -20 145 -14 128 -21 155 -37 140z"/>
</g>
</svg>
