<?xml version="1.0" encoding="UTF-8"?>
<svg width="1260px" height="163px" viewBox="0 0 1260 163" version="1.1" xmlns="http://www.w3.org/2000/svg" xmlns:xlink="http://www.w3.org/1999/xlink">
    <!-- Generator: Sketch 53.2 (72643) - https://sketchapp.com -->
    <title>WillHackett</title>
    <desc>Created with Sketch.</desc>
    <g id="Page-1" stroke="none" stroke-width="1" fill="none" fill-rule="evenodd">
        <path d="M230.6,21 L185.2,161 L142.8,161 L116,75.8 L88,161 L45.6,161 L0.2,21 L41,21 L69.2,110.4 L98.8,21 L135.2,21 L163.4,111.2 L192.8,21 L230.6,21 Z M240,52.6 L278,52.6 L278,161 L240,161 L240,52.6 Z M259,40.6 C252.066632,40.6 246.466688,38.666686 242.2,34.8 C237.933312,30.933314 235.8,26.133362 235.8,20.4 C235.8,14.666638 237.933312,9.866686 242.2,6 C246.466688,2.133314 252.066632,0.2 259,0.2 C265.933368,0.2 271.533312,2.033315 275.8,5.7 C280.066688,9.366685 282.2,14.066638 282.2,19.8 C282.2,25.80003 280.066688,30.766647 275.8,34.7 C271.533312,38.633353 265.933368,40.6 259,40.6 Z M296.6,12.6 L334.6,12.6 L334.6,161 L296.6,161 L296.6,12.6 Z M353.2,12.6 L391.2,12.6 L391.2,161 L353.2,161 L353.2,12.6 Z M597,21 L597,161 L557.4,161 L557.4,106.4 L503.4,106.4 L503.4,161 L463.8,161 L463.8,21 L503.4,21 L503.4,73.6 L557.4,73.6 L557.4,21 L597,21 Z M663.4,50.8 C681.40009,50.8 695.133286,54.899959 704.6,63.1 C714.066714,71.300041 718.8,83.866582 718.8,100.8 L718.8,161 L683.4,161 L683.4,147 C677.933306,157.533386 667.266746,162.8 651.4,162.8 C642.999958,162.8 635.733364,161.333348 629.6,158.4 C623.466636,155.466652 618.833349,151.500025 615.7,146.5 C612.566651,141.499975 611,135.800032 611,129.4 C611,119.133282 614.933294,111.166695 622.8,105.5 C630.666706,99.833305 642.799918,97 659.2,97 L680.8,97 C680.13333,85.533276 672.46674,79.8 657.8,79.8 C652.599974,79.8 647.33336,80.633325 642,82.3 C636.66664,83.966675 632.133352,86.266652 628.4,89.2 L615.6,63.4 C621.60003,59.39998 628.899957,56.300011 637.5,54.1 C646.100043,51.899989 654.73329,50.8 663.4,50.8 Z M662,138.8 C666.400022,138.8 670.26665,137.733344 673.6,135.6 C676.93335,133.466656 679.333326,130.333354 680.8,126.2 L680.8,116.8 L664.4,116.8 C653.333278,116.8 647.8,120.46663 647.8,127.8 C647.8,131.13335 649.066654,133.79999 651.6,135.8 C654.133346,137.80001 657.599978,138.8 662,138.8 Z M793.8,162.8 C781.79994,162.8 771.066714,160.400024 761.6,155.6 C752.133286,150.799976 744.766693,144.133376 739.5,135.6 C734.233307,127.066624 731.6,117.400054 731.6,106.6 C731.6,95.799946 734.233307,86.166709 739.5,77.7 C744.766693,69.233291 752.133286,62.633357 761.6,57.9 C771.066714,53.166643 781.79994,50.8 793.8,50.8 C806.066728,50.8 816.666622,53.433307 825.6,58.7 C834.533378,63.966693 840.866648,71.26662 844.6,80.6 L815.2,95.6 C810.266642,85.866618 803.066714,81 793.6,81 C786.799966,81 781.166689,83.266644 776.7,87.8 C772.233311,92.333356 770,98.59996 770,106.6 C770,114.733374 772.233311,121.099977 776.7,125.7 C781.166689,130.300023 786.799966,132.6 793.6,132.6 C803.066714,132.6 810.266642,127.733382 815.2,118 L844.6,133 C840.866648,142.33338 834.533378,149.633307 825.6,154.9 C816.666622,160.166693 806.066728,162.8 793.8,162.8 Z M901.8,123 L890.6,134.4 L890.6,161 L852.6,161 L852.6,12.6 L890.6,12.6 L890.6,90.4 L929.4,52.6 L974.4,52.6 L929.4,99 L978.2,161 L932.2,161 L901.8,123 Z M1089.8,107 C1089.8,107.266668 1089.6,110.39997 1089.2,116.4 L1010.4,116.4 C1012.00001,122.000028 1015.09998,126.299985 1019.7,129.3 C1024.30002,132.300015 1030.06663,133.8 1037,133.8 C1042.20003,133.8 1046.69998,133.066674 1050.5,131.6 C1054.30002,130.133326 1058.13331,127.73335 1062,124.4 L1082,145.2 C1071.46661,156.933392 1056.06677,162.8 1035.8,162.8 C1023.13327,162.8 1012.00005,160.400024 1002.4,155.6 C992.799952,150.799976 985.366693,144.133376 980.1,135.6 C974.833307,127.066624 972.2,117.400054 972.2,106.6 C972.2,95.93328 974.766641,86.366709 979.9,77.9 C985.033359,69.433291 992.133288,62.800024 1001.2,58 C1010.26671,53.199976 1020.46661,50.8 1031.8,50.8 C1042.60005,50.8 1052.39996,53.033311 1061.2,57.5 C1070.00004,61.966689 1076.96664,68.433291 1082.1,76.9 C1087.23336,85.366709 1089.8,95.399942 1089.8,107 Z M1032,77.8 C1026.1333,77.8 1021.23335,79.46665 1017.3,82.8 C1013.36665,86.13335 1010.86667,90.666638 1009.8,96.4 L1054.2,96.4 C1053.13333,90.666638 1050.63335,86.13335 1046.7,82.8 C1042.76665,79.46665 1037.8667,77.8 1032,77.8 Z M1176.2,156.6 C1172.99998,158.60001 1169.10002,160.133328 1164.5,161.2 C1159.89998,162.266672 1155.00003,162.8 1149.8,162.8 C1135.6666,162.8 1124.80004,159.333368 1117.2,152.4 C1109.59996,145.466632 1105.8,135.133402 1105.8,121.4 L1105.8,85 L1090,85 L1090,56.6 L1105.8,56.6 L1105.8,28.4 L1143.8,28.4 L1143.8,56.6 L1168.6,56.6 L1168.6,85 L1143.8,85 L1143.8,121 C1143.8,124.866686 1144.83332,127.899989 1146.9,130.1 C1148.96668,132.300011 1151.73332,133.4 1155.2,133.4 C1159.60002,133.4 1163.46665,132.266678 1166.8,130 L1176.2,156.6 Z M1259.6,156.6 C1256.39998,158.60001 1252.50002,160.133328 1247.9,161.2 C1243.29998,162.266672 1238.40003,162.8 1233.2,162.8 C1219.0666,162.8 1208.20004,159.333368 1200.6,152.4 C1192.99996,145.466632 1189.2,135.133402 1189.2,121.4 L1189.2,85 L1173.4,85 L1173.4,56.6 L1189.2,56.6 L1189.2,28.4 L1227.2,28.4 L1227.2,56.6 L1252,56.6 L1252,85 L1227.2,85 L1227.2,121 C1227.2,124.866686 1228.23332,127.899989 1230.3,130.1 C1232.36668,132.300011 1235.13332,133.4 1238.6,133.4 C1243.00002,133.4 1246.86665,132.266678 1250.2,130 L1259.6,156.6 Z" id="WillHackett" fill="#161616" fill-rule="nonzero"></path>
    </g>
</svg>