<svg width="256px" height="256px" viewBox="0 0 256 256" version="1.1" xmlns="http://www.w3.org/2000/svg" xmlnsXlink="http://www.w3.org/1999/xlink">
  <g id="Page-1" stroke="none" strokeWidth={1} fill="none" fillRule="evenodd">
    <g id="Group">
      <rect id="Rectangle" stroke="#FCFCFC" strokeWidth={25} x="12.5" y="12.5" width={231} height={231} />
      <path d="M138.015385,173.36 C137.695384,174.320005 137.375387,174.899999 137.055385,175.1 C136.735384,175.300001 136.09539,175.4 135.135385,175.4 L123.375385,175.4 C122.415381,175.4 121.755387,175.280001 121.395385,175.04 C121.035384,174.799999 120.735387,174.240004 120.495385,173.36 L102.975385,107 L84.0153855,173.36 C83.7753843,174.240004 83.4753873,174.799999 83.1153855,175.04 C82.7553837,175.280001 82.0953903,175.4 81.1353855,175.4 L69.4953855,175.4 C68.6153811,175.4 67.9953873,175.300001 67.6353855,175.1 C67.2753837,174.899999 66.9353871,174.320005 66.6153855,173.36 L41.2953855,85.76 C40.9753839,84.6399944 40.9153845,83.9000018 41.1153855,83.54 C41.3153865,83.1799982 42.0153795,83 43.2153855,83 L54.7353855,83 C55.5353895,83 56.1353835,83.0599994 56.5353855,83.18 C56.9353875,83.3000006 57.2153847,83.6799968 57.3753855,84.32 L76.2153855,150.32 L94.2153855,84.8 C94.4553867,83.9199956 94.7753835,83.4000008 95.1753855,83.24 C95.5753875,83.0799992 96.2153811,83 97.0953855,83 L108.735385,83 C109.61539,83 110.275383,83.0799992 110.715385,83.24 C111.155388,83.4000008 111.495384,83.9199956 111.735385,84.8 L129.615385,150.32 L148.455385,84.56 C148.615386,83.8399964 148.855384,83.4000008 149.175385,83.24 C149.495387,83.0799992 150.095381,83 150.975385,83 L162.495385,83 C163.615391,83 164.295384,83.199998 164.535385,83.6 C164.775387,84.000002 164.735387,84.7199948 164.415385,85.76 L138.015385,173.36 Z M201.215385,152.2 C200.628716,152.2 200.215387,152.093334 199.975385,151.88 C199.735384,151.666666 199.615385,151.240003 199.615385,150.6 L199.615385,125.16 C199.615385,118.386633 197.615405,115 193.615385,115 C191.375374,115 189.535393,115.439996 188.095385,116.32 C186.655378,117.200004 185.615389,118.413326 184.975385,119.96 L184.975385,150.6 C184.975385,151.240003 184.842053,151.666666 184.575385,151.88 C184.308717,152.093334 183.908721,152.2 183.375385,152.2 L176.015385,152.2 C175.428716,152.2 175.02872,152.093334 174.815385,151.88 C174.602051,151.666666 174.495385,151.240003 174.495385,150.6 L174.495385,87.8 C174.495385,86.733328 175.002047,86.2 176.015385,86.2 L183.375385,86.2 C184.442057,86.2 184.975385,86.733328 184.975385,87.8 L184.975385,109.4 C186.362059,108.226661 187.882044,107.280004 189.535385,106.56 C191.188727,105.839996 192.762045,105.48 194.255385,105.48 C199.642079,105.48 203.628706,107.053318 206.215385,110.2 C208.802065,113.346682 210.095385,118.306633 210.095385,125.08 L210.095385,150.6 C210.095385,151.240003 209.975387,151.666666 209.735385,151.88 C209.495384,152.093334 209.108721,152.2 208.575385,152.2 L201.215385,152.2 Z M170.895385,176.52 C170.308716,176.52 169.935386,176.440001 169.775385,176.28 C169.615385,176.119999 169.535385,175.800002 169.535385,175.32 L169.535385,168.44 C169.535385,167.959998 169.615385,167.640001 169.775385,167.48 C169.935386,167.319999 170.308716,167.24 170.895385,167.24 L211.775385,167.24 C212.362055,167.24 212.735385,167.319999 212.895385,167.48 C213.055386,167.640001 213.135385,167.959998 213.135385,168.44 L213.135385,175.32 C213.135385,175.800002 213.055386,176.119999 212.895385,176.28 C212.735385,176.440001 212.362055,176.52 211.775385,176.52 L170.895385,176.52 Z" id="Combined-Shape" fill="#FCFCFC" />
    </g>
  </g>
</svg>
